<svg xmlns="http://www.w3.org/2000/svg" viewBox="0 0 480.98 143">
  <defs>
    <style>
      .cls-1, .cls-2 {
        fill: #fff;
      }

      .cls-2 {
        stroke: #fff;
        stroke-miterlimit: 10;
      }
    </style>
  </defs>
  <g id="Слой_2" data-name="Слой 2">
    <g id="Слой_2-2" data-name="Слой 2">
      <g>
        <path class="cls-1" d="M63.86,65.5H90.52V104a62.08,62.08,0,0,1-18.73,8.59,77.48,77.48,0,0,1-20.94,3,55.63,55.63,0,0,1-26.14-6A45.19,45.19,0,0,1,6.57,92.61,46.65,46.65,0,0,1,0,68,46.69,46.69,0,0,1,6.57,43.32,45,45,0,0,1,24.91,26.41a57.33,57.33,0,0,1,26.59-6,61.09,61.09,0,0,1,24,4.48A45.2,45.2,0,0,1,93.12,37.92L73.48,55.22q-8.58-10-20.42-10-10.14,0-16.12,6.11T31,68q0,10.27,5.92,16.51t15.8,6.25a29,29,0,0,0,11.19-2.21Z"/>
        <path class="cls-1" d="M165.69,97.62H131.1L125,113.49H93.77l39.8-91h30.17l39.8,91H171.8Zm-8.45-22.11-8.85-22.89-8.84,22.89Z"/>
        <path class="cls-1" d="M298.22,22.45v91H273l-34.6-41.36v41.36H208.48v-91h25.23L268.3,63.81V22.45Z"/>
      </g>
      <g>
        <path class="cls-1" d="M352.14,37.14a8.5,8.5,0,0,1-3.85,2.74,15.49,15.49,0,0,1-5.59.94A11,11,0,0,1,337,39.36a9.77,9.77,0,0,1-3.83-4.18,14.75,14.75,0,0,1-1.4-6.33v-2q0-5.81,2.78-9.06a9.65,9.65,0,0,1,7.75-3.26,10.22,10.22,0,0,1,6.79,2.12,9.14,9.14,0,0,1,3,6.09h-4.36c-.49-3.08-2.28-4.63-5.36-4.63a5.26,5.26,0,0,0-4.54,2.15,10.85,10.85,0,0,0-1.61,6.3v2A10.32,10.32,0,0,0,338,34.94a5.75,5.75,0,0,0,4.86,2.29q3.4,0,4.85-1.54v-5h-5.27V27.33h9.7Z"/>
        <path class="cls-1" d="M368.59,40.82A8.84,8.84,0,0,1,362,38.26a9.3,9.3,0,0,1-2.53-6.81v-.53a11.43,11.43,0,0,1,1.1-5.09,8.4,8.4,0,0,1,3.09-3.49,8.16,8.16,0,0,1,4.43-1.25,7.46,7.46,0,0,1,6,2.48q2.11,2.47,2.12,7v1.72H363.79A5.69,5.69,0,0,0,365.36,36a4.72,4.72,0,0,0,3.48,1.38A5.8,5.8,0,0,0,373.62,35l2.3,2.2a7.7,7.7,0,0,1-3.05,2.65A9.64,9.64,0,0,1,368.59,40.82Zm-.51-16.3a3.6,3.6,0,0,0-2.84,1.23,6.38,6.38,0,0,0-1.38,3.43H372v-.32a5.14,5.14,0,0,0-1.14-3.24A3.59,3.59,0,0,0,368.08,24.52Z"/>
        <path class="cls-1" d="M387.1,21.44l.12,2.2a6.84,6.84,0,0,1,5.54-2.55q5.94,0,6,6.81V40.46h-4.27V28.14a3.93,3.93,0,0,0-.78-2.68,3.29,3.29,0,0,0-2.56-.87,4.12,4.12,0,0,0-3.85,2.34V40.46h-4.27v-19Z"/>
        <path class="cls-1" d="M417.41,35.3a1.91,1.91,0,0,0-.94-1.74,9.94,9.94,0,0,0-3.12-1.06,15.67,15.67,0,0,1-3.63-1.16c-2.14-1-3.2-2.52-3.2-4.48a5.06,5.06,0,0,1,2.07-4.11,8.15,8.15,0,0,1,5.27-1.66,8.55,8.55,0,0,1,5.51,1.69,5.37,5.37,0,0,1,2.11,4.38H417.2a2.62,2.62,0,0,0-.91-2.05,3.49,3.49,0,0,0-2.43-.82,3.81,3.81,0,0,0-2.29.65,2.07,2.07,0,0,0-.89,1.74,1.73,1.73,0,0,0,.83,1.53,11.12,11.12,0,0,0,3.34,1.1,15.78,15.78,0,0,1,3.94,1.32,5.51,5.51,0,0,1,2.13,1.84,4.69,4.69,0,0,1,.7,2.6,5,5,0,0,1-2.13,4.16,9.08,9.08,0,0,1-5.57,1.59,9.89,9.89,0,0,1-4.17-.85,6.8,6.8,0,0,1-2.85-2.32,5.47,5.47,0,0,1-1-3.18H410a3,3,0,0,0,1.14,2.33,4.5,4.5,0,0,0,2.8.82,4.41,4.41,0,0,0,2.57-.64A2,2,0,0,0,417.41,35.3Z"/>
        <path class="cls-1" d="M433.14,23.52a6.69,6.69,0,0,1,5.29-2.43q6.09,0,6.17,7V40.46h-4.27V28.19a3.73,3.73,0,0,0-.85-2.78,3.46,3.46,0,0,0-2.5-.82,4.12,4.12,0,0,0-3.84,2.29V40.46h-4.27v-27h4.27Z"/>
        <path class="cls-1" d="M452.53,16.49a2.19,2.19,0,0,1,2.41-2.3,2.36,2.36,0,0,1,1.79.65,2.3,2.3,0,0,1,.63,1.65,2.22,2.22,0,0,1-.63,1.62,2.79,2.79,0,0,1-3.58,0A2.26,2.26,0,0,1,452.53,16.49Zm4.53,24h-4.27v-19h4.27Z"/>
        <path class="cls-1" d="M469.28,21.44l.12,2.2a6.84,6.84,0,0,1,5.54-2.55q5.94,0,6,6.81V40.46h-4.27V28.14a3.93,3.93,0,0,0-.78-2.68,3.29,3.29,0,0,0-2.56-.87,4.12,4.12,0,0,0-3.85,2.34V40.46h-4.27v-19Z"/>
        <path class="cls-1" d="M346.85,77.71h-9.91l-2.08,6h-4.62l9.67-25.59h4l9.68,25.59h-4.64Zm-8.67-3.59h7.42L341.89,63.5Z"/>
        <path class="cls-1" d="M369.63,68.55a10,10,0,0,0-1.74-.14,3.92,3.92,0,0,0-4,2.25v13h-4.27v-19h4.08l.1,2.12a4.83,4.83,0,0,1,4.29-2.48,4,4,0,0,1,1.51.25Z"/>
        <path class="cls-1" d="M382.16,60v4.63h3.35v3.16h-3.35V78.43a2.32,2.32,0,0,0,.43,1.57,2,2,0,0,0,1.54.48,7,7,0,0,0,1.49-.17v3.3a10.5,10.5,0,0,1-2.81.41q-4.92,0-4.92-5.44V67.81h-3.13V64.65h3.13V60Z"/>
        <path class="cls-1" d="M392.38,59.69A2.3,2.3,0,0,1,393,58a2.32,2.32,0,0,1,1.78-.65,2.36,2.36,0,0,1,1.79.65,2.26,2.26,0,0,1,.64,1.65,2.19,2.19,0,0,1-.64,1.62,2.4,2.4,0,0,1-1.79.65,2.36,2.36,0,0,1-1.78-.65A2.22,2.22,0,0,1,392.38,59.69Zm4.54,24h-4.27v-19h4.27Z"/>
        <path class="cls-1" d="M406.67,83.66V67.81h-2.9V64.65h2.9V62.9A6.54,6.54,0,0,1,408.43,58a6.72,6.72,0,0,1,4.92-1.72,9.87,9.87,0,0,1,2.39.31l-.1,3.34a8.8,8.8,0,0,0-1.64-.14q-3.06,0-3.06,3.15v1.69h3.87v3.16h-3.87V83.66Z"/>
        <path class="cls-1" d="M432.89,83.66a6.79,6.79,0,0,1-.49-1.77,6.64,6.64,0,0,1-5,2.13,6.73,6.73,0,0,1-4.68-1.64,5.26,5.26,0,0,1-1.81-4,5.43,5.43,0,0,1,2.26-4.67,11,11,0,0,1,6.46-1.62h2.62V70.8a3.33,3.33,0,0,0-.82-2.37,3.3,3.3,0,0,0-2.52-.88,3.8,3.8,0,0,0-2.39.72,2.27,2.27,0,0,0-.93,1.86h-4.27a4.76,4.76,0,0,1,1-2.93,6.92,6.92,0,0,1,2.83-2.13,9.81,9.81,0,0,1,4-.78A8,8,0,0,1,434.49,66a6,6,0,0,1,2,4.72v8.58a9.76,9.76,0,0,0,.72,4.1v.29Zm-4.69-3.07a4.86,4.86,0,0,0,2.38-.62,4.05,4.05,0,0,0,1.68-1.65V74.73H430a6.32,6.32,0,0,0-3.57.83,2.67,2.67,0,0,0-1.2,2.34,2.52,2.52,0,0,0,.82,2A3.17,3.17,0,0,0,428.2,80.59Z"/>
        <path class="cls-1" d="M452.42,80.61a3.8,3.8,0,0,0,2.65-.94,3.16,3.16,0,0,0,1.13-2.3h4a6.23,6.23,0,0,1-1.1,3.32,7.28,7.28,0,0,1-2.82,2.43,8.34,8.34,0,0,1-3.83.9,8.13,8.13,0,0,1-6.33-2.59,10.27,10.27,0,0,1-2.33-7.13v-.44a10.07,10.07,0,0,1,2.32-7,8,8,0,0,1,6.33-2.61,7.78,7.78,0,0,1,5.52,2,7.06,7.06,0,0,1,2.24,5.2h-4a3.91,3.91,0,0,0-1.12-2.69,3.55,3.55,0,0,0-2.66-1.06,3.77,3.77,0,0,0-3.2,1.5,7.7,7.7,0,0,0-1.14,4.57v.68a7.87,7.87,0,0,0,1.11,4.62A3.78,3.78,0,0,0,452.42,80.61Z"/>
        <path class="cls-1" d="M472.4,60v4.63h3.36v3.16H472.4V78.43a2.38,2.38,0,0,0,.43,1.57,2,2,0,0,0,1.54.48,7.11,7.11,0,0,0,1.5-.17v3.3a10.57,10.57,0,0,1-2.82.41q-4.92,0-4.92-5.44V67.81H465V64.65h3.13V60Z"/>
        <path class="cls-1" d="M352.83,126.86h-4.45L337,108.71v18.15h-4.45V101.27H337l11.44,18.23V101.27h4.42Z"/>
        <path class="cls-1" d="M360.47,117.18a11.24,11.24,0,0,1,1.11-5,8,8,0,0,1,3.11-3.44,8.68,8.68,0,0,1,4.6-1.21,8.31,8.31,0,0,1,6.25,2.48,9.71,9.71,0,0,1,2.59,6.58l0,1a11.36,11.36,0,0,1-1.08,5A8,8,0,0,1,374,126a8.81,8.81,0,0,1-4.65,1.22,8.26,8.26,0,0,1-6.44-2.68,10.24,10.24,0,0,1-2.42-7.15Zm4.27.37a7.63,7.63,0,0,0,1.21,4.59,4,4,0,0,0,3.38,1.67,3.9,3.9,0,0,0,3.36-1.69,8.42,8.42,0,0,0,1.21-4.94,7.53,7.53,0,0,0-1.24-4.57,4,4,0,0,0-3.37-1.69,3.91,3.91,0,0,0-3.32,1.66A8.31,8.31,0,0,0,364.74,117.55Z"/>
        <path class="cls-1" d="M390.72,103.22v4.62h3.35V111h-3.35v10.62a2.32,2.32,0,0,0,.43,1.57,2,2,0,0,0,1.54.48,7,7,0,0,0,1.49-.17v3.3a10.5,10.5,0,0,1-2.81.41q-4.92,0-4.92-5.44V111h-3.13v-3.17h3.13v-4.62Z"/>
        <path class="cls-1" d="M409.31,127.22a8.84,8.84,0,0,1-6.58-2.56,9.3,9.3,0,0,1-2.52-6.81v-.53a11.43,11.43,0,0,1,1.09-5.09,8.4,8.4,0,0,1,3.09-3.49,8.16,8.16,0,0,1,4.43-1.25,7.46,7.46,0,0,1,6,2.48q2.12,2.48,2.12,7v1.72H404.51a5.7,5.7,0,0,0,1.58,3.72,4.69,4.69,0,0,0,3.47,1.38,5.8,5.8,0,0,0,4.78-2.38l2.3,2.2a7.7,7.7,0,0,1-3.05,2.65A9.64,9.64,0,0,1,409.31,127.22Zm-.51-16.3a3.6,3.6,0,0,0-2.84,1.23,6.38,6.38,0,0,0-1.38,3.43h8.14v-.32a5.14,5.14,0,0,0-1.14-3.24A3.59,3.59,0,0,0,408.8,110.92Z"/>
        <path class="cls-1" d="M434.51,121.7a1.91,1.91,0,0,0-.94-1.74,9.94,9.94,0,0,0-3.12-1.06,15.67,15.67,0,0,1-3.63-1.16c-2.14-1-3.2-2.52-3.2-4.48a5.06,5.06,0,0,1,2.07-4.11,8.15,8.15,0,0,1,5.27-1.66,8.55,8.55,0,0,1,5.51,1.69,5.34,5.34,0,0,1,2.11,4.38H434.3a2.62,2.62,0,0,0-.91-2,3.49,3.49,0,0,0-2.43-.82,3.81,3.81,0,0,0-2.29.65,2.07,2.07,0,0,0-.89,1.74,1.73,1.73,0,0,0,.83,1.53,11.12,11.12,0,0,0,3.34,1.1,15.78,15.78,0,0,1,3.94,1.32,5.51,5.51,0,0,1,2.13,1.84,4.69,4.69,0,0,1,.7,2.6,4.94,4.94,0,0,1-2.13,4.15,9,9,0,0,1-5.57,1.6,9.89,9.89,0,0,1-4.17-.85,6.8,6.8,0,0,1-2.85-2.32,5.47,5.47,0,0,1-1-3.18h4.15a3,3,0,0,0,1.14,2.33,4.5,4.5,0,0,0,2.8.82,4.41,4.41,0,0,0,2.57-.64A2,2,0,0,0,434.51,121.7Z"/>
      </g>
      <line class="cls-2" x1="314.33" x2="314.33" y2="143"/>
    </g>
  </g>
</svg>
