<?xml version="1.0" encoding="UTF-8"?>
<svg id="_Слой_2" data-name="Слой 2" xmlns="http://www.w3.org/2000/svg" viewBox="0 0 1214.28 300.74">
  <defs>
    <style>
      .cls-1 {
        fill: #8adeff;
      }

      .cls-2 {
        fill: #fff;
      }

      .cls-3, .cls-4 {
        fill: #98d0f8;
      }

      .cls-4 {
        opacity: .4;
      }

      .cls-5 {
        fill: #072b42;
        opacity: .09;
      }

      .cls-6 {
        fill: #63b4e5;
        opacity: .42;
      }

      .cls-7 {
        fill: #1b3e4c;
        stroke: #000;
        stroke-linecap: round;
        stroke-linejoin: round;
        stroke-width: 6.55px;
      }

      .cls-8 {
        fill: #e7f61b;
      }
    </style>
  </defs>
  <g id="TEXT">
    <g>
      <path class="cls-7" d="m917.28,83.14v211.81h-58.7l-80.49-96.22v96.22h-69.6V83.14h58.7l80.49,96.22v-96.22h69.6Z"/>
      <path class="cls-4" d="m915.64,83.14v211.81h-58.7l-80.49-96.22v96.22h-69.6V83.14h58.7l80.49,96.22v-96.22h69.6Z"/>
      <path class="cls-6" d="m915.64,83.14v211.81h-58.7l-80.49-96.22v96.22h-69.6V83.14h58.7l80.49,96.22v-96.22h69.6Z"/>
      <path class="cls-4" d="m917.28,83.14v211.81h-58.7l-80.49-96.22v96.22h-69.6V83.14h58.7l80.49,96.22v-96.22h69.6Z"/>
      <path class="cls-8" d="m283.75,142.09s9.58-49.8-199.19-111.09C17.52,11.85,19.44,6.1,15.61.36s7.66,59.37,86.19,95.77c4.13,1.92,30.34,17.53,71.96,22.2,58.28,6.53,90.68-3.66,98.5,27.6,10.87,43.5-30.65,55.54-40.22,44.05-6.13-7.36-19.15,3.83-6.7,11.27,12.65,7.56,30.62,21.05,59.84,73.84.49-134.91-1.43-132.99-1.43-132.99Z"/>
      <path class="cls-8" d="m158.98,145.85c65.17-1.84,49.84-17.16,76.66-17.16,21.16,0,28.99,12.61,32.18,26.43,2.3,9.96-2.65,22.36-13.48,25.74-8.67,2.71-20.57-1.71-20.59-10.79-.02-5,3.82-10.74,11.48-10.74,5.75,0,6.11-5.14,5.75-7.66-.2-1.42-3.83-9.58-13.41-7.66-4.41.88-9.54,7.52-12.94,13.04-3.64,5.91-8.46,11.05-14.35,14.73-7.66,4.79-20.59,6.7-32.08,4.79-25.41-4.24-41.14-14.43-52.81-27.31-1.75-1.93-.29-5.02,2.31-4.88l31.3,1.47Z"/>
      <path class="cls-2" d="m114.63,71.94l-6.32,12.62c-.4.79-1.5.86-1.99.11l-7.73-11.81c-.11-.17-.27-.31-.45-.4l-12.62-6.32c-.79-.4-.86-1.5-.11-1.99l11.81-7.73c.17-.11.31-.27.4-.45l6.32-12.62c.4-.79,1.5-.86,1.99-.11l7.73,11.81c.11.17.27.31.45.4l12.62,6.32c.79.4.86,1.5.11,1.99l-11.81,7.73c-.17.11-.31.27-.4.45Z"/>
      <path class="cls-2" d="m152.53,88.97l-4.79,9.58c-.3.6-1.14.65-1.51.09l-5.87-8.96c-.08-.13-.2-.23-.34-.3l-9.58-4.79c-.6-.3-.65-1.14-.09-1.51l8.96-5.87c.13-.08.23-.2.3-.34l4.79-9.58c.3-.6,1.14-.65,1.51-.09l5.87,8.96c.08.13.2.23.34.3l9.58,4.79c.6.3.65,1.14.09,1.51l-8.96,5.87c-.13.08-.23.2-.3.34Z"/>
      <path class="cls-2" d="m184.72,100.9l-3.05,6.1c-.19.38-.73.41-.96.06l-3.74-5.71c-.05-.08-.13-.15-.22-.19l-6.1-3.05c-.38-.19-.41-.73-.06-.96l5.71-3.74c.08-.05.15-.13.19-.22l3.05-6.1c.19-.38.73-.41.96-.06l3.74,5.71c.05.08.13.15.22.19l6.1,3.05c.38.19.41.73.06.96l-5.71,3.74c-.08.05-.15.13-.19.22Z"/>
      <path class="cls-8" d="m108.04,111.7S15.52,74.65,8.2,8.78C-.58,55.62,57.12,109.24,108.04,111.7Z"/>
      <path class="cls-8" d="m70.3,112.86S10.45,89.54,5.33,47.14C-.05,77.38,37.47,111.58,70.3,112.86Z"/>
      <path class="cls-8" d="m42.89,114.69S3.69,99.43.34,71.66c-3.52,19.8,21.05,42.2,42.55,43.04Z"/>
      <path class="cls-8" d="m119.44,152.23s23.42,33.67,70.26,30.74c-21.96,8.78-60.01-2.93-70.26-30.74Z"/>
      <path class="cls-8" d="m119.4,165.64s16.09,25.67,50.75,25.16c-16.51,5.7-44.17-4.28-50.75-25.16Z"/>
      <path class="cls-8" d="m935.34,142.09s-9.58-49.8,199.19-111.09c67.04-19.15,65.12-24.9,68.95-30.65s-7.66,59.37-86.19,95.77c-4.13,1.92-30.34,17.53-71.96,22.2-58.28,6.53-90.68-3.66-98.5,27.6-10.87,43.5,30.65,55.54,40.22,44.05,6.13-7.36,19.15,3.83,6.7,11.27-12.65,7.56-30.62,21.05-59.84,73.84-.49-134.91,1.43-132.99,1.43-132.99Z"/>
      <path class="cls-8" d="m1060.11,145.85c-65.17-1.84-49.84-17.16-76.66-17.16-21.16,0-28.99,12.61-32.18,26.43-2.3,9.96,2.65,22.36,13.48,25.74,8.67,2.71,20.57-1.71,20.59-10.79.02-5-3.82-10.74-11.48-10.74-5.75,0-6.11-5.14-5.75-7.66.2-1.42,3.83-9.58,13.41-7.66,4.41.88,9.54,7.52,12.94,13.04,3.64,5.91,8.46,11.05,14.35,14.73,7.66,4.79,20.59,6.7,32.08,4.79,25.41-4.24,41.14-14.43,52.81-27.31,1.75-1.93.29-5.02-2.31-4.88l-31.3,1.47Z"/>
      <path class="cls-2" d="m1104.46,71.94l6.32,12.62c.4.79,1.5.86,1.99.11l7.73-11.81c.11-.17.27-.31.45-.4l12.62-6.32c.79-.4.86-1.5.11-1.99l-11.81-7.73c-.17-.11-.31-.27-.4-.45l-6.32-12.62c-.4-.79-1.5-.86-1.99-.11l-7.73,11.81c-.11.17-.27.31-.45.4l-12.62,6.32c-.79.4-.86,1.5-.11,1.99l11.81,7.73c.17.11.31.27.4.45Z"/>
      <path class="cls-2" d="m1066.56,88.97l4.79,9.58c.3.6,1.14.65,1.51.09l5.87-8.96c.08-.13.2-.23.34-.3l9.58-4.79c.6-.3.65-1.14.09-1.51l-8.96-5.87c-.13-.08-.23-.2-.3-.34l-4.79-9.58c-.3-.6-1.14-.65-1.51-.09l-5.87,8.96c-.08.13-.2.23-.34.3l-9.58,4.79c-.6.3-.65,1.14-.09,1.51l8.96,5.87c.13.08.23.2.3.34Z"/>
      <path class="cls-2" d="m1034.37,100.9l3.05,6.1c.19.38.73.41.96.06l3.74-5.71c.05-.08.13-.15.22-.19l6.1-3.05c.38-.19.41-.73.06-.96l-5.71-3.74c-.08-.05-.15-.13-.19-.22l-3.05-6.1c-.19-.38-.73-.41-.96-.06l-3.74,5.71c-.05.08-.13.15-.22.19l-6.1,3.05c-.38.19-.41.73-.06.96l5.71,3.74c.08.05.15.13.19.22Z"/>
      <path class="cls-8" d="m1111.05,111.7s92.52-37.06,99.84-102.92c8.78,46.84-48.93,100.46-99.84,102.92Z"/>
      <path class="cls-8" d="m1148.79,112.86s59.85-23.31,64.97-65.72c5.37,30.24-32.14,64.44-64.97,65.72Z"/>
      <path class="cls-8" d="m1099.65,152.23s-23.42,33.67-70.26,30.74c21.96,8.78,60.01-2.93,70.26-30.74Z"/>
      <path class="cls-8" d="m1099.69,165.64s-16.09,25.67-50.75,25.16c16.51,5.7,44.17-4.28,50.75-25.16Z"/>
      <path class="cls-6" d="m442.46,180.96h62.03l8.19,89.57c-12.51,8.68-27.03,15.33-43.57,19.97-16.54,4.64-32.78,6.96-48.72,6.96-22.59,0-42.87-4.69-60.82-14.07-17.96-9.38-32.03-22.49-42.21-39.34-10.19-16.84-15.28-35.96-15.28-57.34s5.09-40.5,15.28-57.34c10.18-16.84,24.41-29.96,42.67-39.34,18.25-9.38,38.88-14.07,61.88-14.07,20.77,0,39.38,3.48,55.83,10.44,16.44,6.96,30.11,17.1,41,30.41l-45.69,40.24c-13.31-15.53-29.15-23.3-47.51-23.3-15.73,0-28.24,4.74-37.52,14.22-9.28,9.49-13.92,22.39-13.92,38.73s4.59,28.75,13.77,38.43c9.18,9.68,21.43,14.53,36.77,14.53,9.08,0,17.75-1.71,26.02-5.14l-8.19-53.56Z"/>
      <path class="cls-7" d="m442.46,180.96h62.03l8.19,89.57c-12.51,8.68-27.03,15.33-43.57,19.97-16.54,4.64-32.78,6.96-48.72,6.96-22.59,0-42.87-4.69-60.82-14.07-17.96-9.38-32.03-22.49-42.21-39.34-10.19-16.84-15.28-35.96-15.28-57.34s5.09-40.5,15.28-57.34c10.18-16.84,24.41-29.96,42.67-39.34,18.25-9.38,38.88-14.07,61.88-14.07,20.77,0,39.38,3.48,55.83,10.44,16.44,6.96,30.11,17.1,41,30.41l-45.69,40.24c-13.31-15.53-29.15-23.3-47.51-23.3-15.73,0-28.24,4.74-37.52,14.22-9.28,9.49-13.92,22.39-13.92,38.73s4.59,28.75,13.77,38.43c9.18,9.68,21.43,14.53,36.77,14.53,9.08,0,17.75-1.71,26.02-5.14l-8.19-53.56Z"/>
      <path class="cls-4" d="m442.46,180.96h62.03l8.19,89.57c-12.51,8.68-27.03,15.33-43.57,19.97-16.54,4.64-32.78,6.96-48.72,6.96-22.59,0-42.87-4.69-60.82-14.07-17.96-9.38-32.03-22.49-42.21-39.34-10.19-16.84-15.28-35.96-15.28-57.34s5.09-40.5,15.28-57.34c10.18-16.84,24.41-29.96,42.67-39.34,18.25-9.38,38.88-14.07,61.88-14.07,20.77,0,39.38,3.48,55.83,10.44,16.44,6.96,30.11,17.1,41,30.41l-45.69,40.24c-13.31-15.53-29.15-23.3-47.51-23.3-15.73,0-28.24,4.74-37.52,14.22-9.28,9.49-13.92,22.39-13.92,38.73s4.59,28.75,13.77,38.43c9.18,9.68,21.43,14.53,36.77,14.53,9.08,0,17.75-1.71,26.02-5.14l-8.19-53.56Z"/>
      <path class="cls-4" d="m442.46,180.96h62.03l8.19,89.57c-12.51,8.68-27.03,15.33-43.57,19.97-16.54,4.64-32.78,6.96-48.72,6.96-22.59,0-42.87-4.69-60.82-14.07-17.96-9.38-32.03-22.49-42.21-39.34-10.19-16.84-15.28-35.96-15.28-57.34s5.09-40.5,15.28-57.34c10.18-16.84,24.41-29.96,42.67-39.34,18.25-9.38,38.88-14.07,61.88-14.07,20.77,0,39.38,3.48,55.83,10.44,16.44,6.96,30.11,17.1,41,30.41l-45.69,40.24c-13.31-15.53-29.15-23.3-47.51-23.3-15.73,0-28.24,4.74-37.52,14.22-9.28,9.49-13.92,22.39-13.92,38.73s4.59,28.75,13.77,38.43c9.18,9.68,21.43,14.53,36.77,14.53,9.08,0,17.75-1.71,26.02-5.14l-8.19-53.56Z"/>
      <path class="cls-4" d="m442.46,181.46h62.03l8.19,89.57c-12.51,8.68-27.03,15.33-43.57,19.97-16.54,4.64-32.78,6.96-48.72,6.96-22.59,0-42.87-4.69-60.82-14.07-17.96-9.38-32.03-22.49-42.21-39.34-10.19-16.84-15.28-35.96-15.28-57.34s5.09-40.5,15.28-57.34c10.18-16.84,24.41-29.96,42.67-39.34,18.25-9.38,38.88-14.07,61.88-14.07,20.77,0,39.38,3.48,55.83,10.44,16.44,6.96,30.11,17.1,41,30.41l-45.69,40.24c-13.31-15.53-29.15-23.3-47.51-23.3-15.73,0-28.24,4.74-37.52,14.22-9.28,9.49-13.92,22.39-13.92,38.73s4.59,28.75,13.77,38.43c9.18,9.68,21.43,14.53,36.77,14.53,9.08,0,17.75-1.71,26.02-5.14l-8.19-53.56Z"/>
      <path class="cls-3" d="m401.96,87.73s-79.08,0-86.41,79.08c13.18-36.61,30.75-68.83,86.41-79.08Z"/>
      <path class="cls-2" d="m360.22,101.59s-31.93,9.97-34.1,35.78c9.76-18.75,13.32-23.11,34.1-35.78Z"/>
      <path class="cls-3" d="m488.36,100.91s16.11,5.86,19.04,14.65c1.46,7.32-14.65,16.11-14.65,16.11,0,0,19.04-14.65-4.39-30.75Z"/>
      <path class="cls-3" d="m754.9,89.2h-39.54v52.04s-1.46-46.18,39.54-52.04Z"/>
      <path class="cls-2" d="m498.61,108.24s8.79,4.39,7.32,10.25c-1.12,4.49-7.32,7.32-7.32,7.32,0,0,11.72-8.79,0-17.57Z"/>
      <path class="cls-5" d="m869.5,98.06c9.08,18.78,41.03,95.71.99,178.59-1.48,3.07,1.68,6.36,5.69,5.8,30.54-4.27,33.53-31.2,33.53-31.2,0,0,16.61-164.33-35.85-158.99-3.45.35-5.62,3.19-4.35,5.81Z"/>
      <path class="cls-5" d="m736.87,115.33s-21.94,10.32-21.1,58.05-4.78,89.12,1.83,103.25c6.61,14.14,24.33,13.83,25.17-2.14.84-15.97,7.72-148.28,3.38-156.58-3.38-6.45-9.28-2.58-9.28-2.58Z"/>
      <path class="cls-7" d="m653.17,256.4h-80.49l-14.22,36.92h-72.62l92.59-211.81h70.2l92.59,211.81h-73.83l-14.22-36.92Zm-19.67-51.44l-20.58-53.26-20.58,53.26h41.15Z"/>
      <path class="cls-6" d="m653,255.11h-80.49l-14.22,36.92h-72.62l92.59-211.81h70.2l92.59,211.81h-73.83l-14.22-36.92Zm-19.67-51.44l-20.58-53.26-20.58,53.26h41.15Z"/>
      <path class="cls-4" d="m653.17,256.4h-80.49l-14.22,36.92h-72.62l92.59-211.81h70.2l92.59,211.81h-73.83l-14.22-36.92Zm-19.67-51.44l-20.58-53.26-20.58,53.26h41.15Z"/>
      <path class="cls-4" d="m653.17,256.4h-80.49l-14.22,36.92h-72.62l92.59-211.81h70.2l92.59,211.81h-73.83l-14.22-36.92Zm-19.67-51.44l-20.58-53.26-20.58,53.26h41.15Z"/>
      <path class="cls-5" d="m503.01,231.25c0,30.75-26.36,55.65-52.72,54.19-10.34-.57-18.94-27.95,5.83-41.13,41.04-21.84,16.13-48.72,23.81-55.35,6.98-6.03,23.09-4.18,23.09,42.3Z"/>
      <path class="cls-1" d="m635.84,205.92l-18.97,33c-1.19,2.07-4.18,2.07-5.37,0l-18.97-33c-.27-.47-.67-.87-1.14-1.14l-33-18.97c-2.07-1.19-2.07-4.18,0-5.37l33-18.97c.47-.27.87-.67,1.14-1.14l18.97-33c1.19-2.07,4.18-2.07,5.37,0l18.97,33c.27.47.67.87,1.14,1.14l33,18.97c2.07,1.19,2.07,4.18,0,5.37l-33,18.97c-.47.27-.87.67-1.14,1.14Z"/>
      <path class="cls-5" d="m640.69,209.56l-22.6,39.31c-1.42,2.47-4.97,2.47-6.39,0l-22.6-39.31c-.32-.56-.79-1.03-1.36-1.36l-39.31-22.6c-2.47-1.42-2.47-4.97,0-6.39l39.31-22.6c.56-.32,1.03-.79,1.36-1.36l22.6-39.31c1.42-2.47,4.97-2.47,6.39,0l22.6,39.31c.32.56.79,1.03,1.36,1.36l39.31,22.6c2.47,1.42,2.47,4.97,0,6.39l-39.31,22.6c-.56.32-1.03.79-1.36,1.36Z"/>
      <path class="cls-8" d="m630.65,199.62l-14.01,24.36c-.88,1.53-3.08,1.53-3.96,0l-14.01-24.36c-.2-.35-.49-.64-.84-.84l-24.36-14.01c-1.53-.88-1.53-3.08,0-3.96l24.36-14.01c.35-.2.64-.49.84-.84l14.01-24.36c.88-1.53,3.08-1.53,3.96,0l14.01,24.36c.2.35.49.64.84.84l24.36,14.01c1.53.88,1.53,3.08,0,3.96l-24.36,14.01c-.35.2-.64.49-.84.84Z"/>
      <path class="cls-3" d="m614.31,86.27h-30.78s-15.39,32.49-15.39,32.49c0,0,13.95-31.03,46.17-32.49Z"/>
      <path class="cls-2" d="m597.78,88h-12.79l-6.71,13s3.25-11.38,19.5-13Z"/>
      <path class="cls-2" d="m735.13,91.1h-15.12v20.19s-3.18-18.29,15.12-20.19Z"/>
    </g>
  </g>
</svg>